<?xml version="1.0" encoding="utf-8"?>
<!-- Generator: Adobe Illustrator 19.1.0, SVG Export Plug-In . SVG Version: 6.00 Build 0)  -->
<svg version="1.1" id="Layer_1" xmlns="http://www.w3.org/2000/svg" xmlns:xlink="http://www.w3.org/1999/xlink" x="0px" y="0px"
	 viewBox="0 0 226.2 227.1" style="enable-background:new 0 0 226.2 227.1;" xml:space="preserve">
<g>
	<g>
		<path d="M113.8,4.4c-3.1,0-10.8,15.5-9.7,34.4c1.1,18.9,9.7,42.5,9.7,42.5s8.6-23.6,9.7-42.5C124.6,19.9,116.9,4.4,113.8,4.4z"/>
		<path d="M153,18c-2.5-1.3-15.5,8.3-22.6,24.5c-7.1,16.2-9.8,39.4-9.8,39.4s17.1-16,26-31.2C155.4,35.4,155.5,19.3,153,18z"/>
		<path d="M74.3,18c-2.5,1.3-2.5,17.4,6.4,32.7c8.9,15.3,26,31.2,26,31.2s-2.8-23.2-9.8-39.4C89.8,26.3,76.9,16.7,74.3,18z"/>
		<path d="M135.6,17.2c2.8,0,5-2.3,5-5c0-2.8-2.3-5-5-5c-2.8,0-5,2.3-5,5C130.6,15,132.8,17.2,135.6,17.2z"/>
		<circle cx="93.7" cy="12.2" r="5"/>
	</g>
	<g>
		<g>
			<path d="M10.8,113.2h23.4c4,0,7.7,0.4,11,1.1c3.3,0.7,6.2,1.8,8.5,3.4c2.4,1.5,4.2,3.5,5.5,5.9c1.3,2.4,2,5.4,2,8.8
				c0,3.9-1,7.5-2.9,10.6c-2,3.2-4.8,5.3-8.6,6.5v0.5c4.8,0.9,8.7,2.9,11.6,6c3,3.1,4.4,7.4,4.4,12.8c0,3.8-0.7,7.2-2.2,10.1
				c-1.4,2.9-3.5,5.3-6.1,7.2c-2.6,1.9-5.8,3.4-9.5,4.3c-3.7,1-7.7,1.4-12.1,1.4H10.8V113.2z M32.4,146.7c6.7,0,11.6-1.2,14.5-3.5
				c3-2.3,4.4-5.5,4.4-9.5c0-4.6-1.5-7.8-4.6-9.7c-3.1-1.9-7.7-2.9-13.9-2.9H20.8v25.6H32.4z M34.5,184.1c6.8,0,12.1-1.3,15.9-3.8
				c3.8-2.5,5.6-6.4,5.6-11.7c0-4.9-1.8-8.5-5.5-10.7c-3.7-2.3-9-3.4-16-3.4H20.8v29.7H34.5z"/>
			<path d="M124.7,192l-19-33.3H91.4V192h-10v-78.8H106c4,0,7.7,0.4,11.1,1.1c3.4,0.8,6.3,2,8.8,3.8c2.4,1.8,4.3,4,5.7,6.8
				c1.4,2.8,2,6.2,2,10.3c0,6.2-1.6,11.1-4.8,14.8c-3.2,3.7-7.5,6.2-12.8,7.6l19.9,34.3H124.7z M91.4,150.6h13.2
				c6.2,0,10.9-1.3,14.2-3.8c3.3-2.5,4.9-6.3,4.9-11.5c0-5.2-1.6-8.8-4.9-10.9c-3.3-2.1-8-3.1-14.2-3.1H91.4V150.6z"/>
			<path d="M149.8,113.2h12l15.1,42c1,2.7,1.9,5.5,2.8,8.2c0.9,2.8,1.9,5.5,2.8,8.2h0.5c1-2.7,1.9-5.5,2.7-8.2
				c0.8-2.8,1.7-5.5,2.7-8.2l14.9-42h12.1V192h-9.4v-43.4c0-3.5,0.2-7.4,0.5-11.6c0.3-4.2,0.6-8.1,0.8-11.6h-0.5l-6.2,17.9
				l-14.9,40.8h-6.6l-14.9-40.8l-6.2-17.9h-0.5c0.2,3.5,0.5,7.4,0.8,11.6c0.3,4.2,0.4,8.1,0.4,11.6V192h-9V113.2z"/>
		</g>
		<rect x="4.2" y="204" width="218.3" height="6.6"/>
		<rect x="4.2" y="92.1" width="218.3" height="6.5"/>
	</g>
</g>
</svg>
